<svg width="752" height="196" viewBox="0 0 752 196" fill="none" xmlns="http://www.w3.org/2000/svg">
<path d="M262.485 68.3907C255.412 60.7099 246.08 56.8236 234.697 56.8236C221.49 56.8236 210.989 60.8016 203.503 68.6543C196.029 76.4841 192.246 86.8475 192.246 99.4462C192.246 112.045 196.041 122.454 203.526 129.997C211.012 137.541 221.089 141.37 233.481 141.37H235.786C246.906 141.049 255.985 137.013 262.829 129.367V139.627H277.319V25H262.473V68.3907H262.485ZM235.912 128.782C227.429 128.782 220.527 126.065 215.38 120.7C210.221 115.324 207.608 108.17 207.608 99.4348C207.608 90.1261 210.221 82.709 215.38 77.3898C220.527 72.082 227.429 69.388 235.912 69.388C244.395 69.388 251.021 72.1164 255.698 77.5044C260.433 82.9497 262.829 90.2064 262.829 99.0794C262.829 107.952 260.421 114.796 255.687 120.414C250.941 126.042 244.475 128.771 235.912 128.771V128.782Z" fill="white"/>
<path d="M358.437 68.6656C351.341 60.8014 341.895 56.812 330.305 56.812C317.099 56.812 306.598 60.79 299.112 68.6427C291.637 76.4725 287.854 86.8358 287.854 99.4346C287.854 112.033 291.649 122.443 299.135 129.986C306.621 137.529 316.697 141.358 329.09 141.358H331.394C342.227 141.037 351.181 137.082 358.093 129.596V154.541C358.093 156.742 357.612 157.384 357.463 157.533C357.279 157.717 356.626 158.164 354.643 158.164H320.366V171.439H354.643C361.2 171.439 365.763 170.247 368.606 167.793C371.506 165.283 372.927 160.95 372.927 154.553V58.5545H358.437V68.6656ZM331.52 128.782C323.037 128.782 316.136 126.065 310.988 120.7C305.83 115.323 303.216 108.17 303.216 99.4346C303.216 90.1259 305.83 82.7088 310.988 77.3896C316.136 72.0819 323.037 69.3879 331.52 69.3879C340.003 69.3879 346.629 72.1162 351.307 77.5043C356.041 82.9496 358.437 90.2062 358.437 99.0792C358.437 107.952 356.03 114.796 351.295 120.413C346.549 126.042 340.084 128.771 331.52 128.771V128.782Z" fill="white"/>
<path d="M457.106 72.506C454.137 67.8517 449.838 64.0228 444.313 61.1453C438.799 58.2679 432.264 56.812 424.882 56.812C412.008 56.812 401.782 60.79 394.457 68.6542C387.166 76.484 383.474 86.7785 383.474 99.2626C383.474 111.747 387.234 122.443 394.663 129.986C402.091 137.54 412.26 141.358 424.882 141.358C431.164 141.358 436.838 140.383 441.745 138.48C446.651 136.566 450.434 134.365 452.991 131.923C455.513 129.516 457.68 126.719 459.422 123.589C461.211 120.391 462.185 118.293 462.517 116.986C462.815 115.793 463.022 114.831 463.148 114.097L463.434 112.435H448.004L447.19 115.152C446.881 116.069 446.216 117.295 445.184 118.797C444.141 120.333 442.822 121.904 441.275 123.463C439.807 124.93 437.641 126.191 434.844 127.223C432.001 128.266 428.722 128.782 425.076 128.782C416.719 128.782 410.277 126.443 405.943 121.835C401.851 117.49 399.443 111.724 398.79 104.674H464.214L464.375 103.435C464.615 101.636 464.73 99.8817 464.73 98.208C464.73 94.6312 464.191 90.573 463.125 86.1365C462.047 81.6656 460.03 77.0686 457.118 72.4946L457.106 72.506ZM449.529 91.9258H398.824C399.627 85.976 402.114 80.7715 406.264 76.4267C410.712 71.7609 417.04 69.3879 425.054 69.3879C433.067 69.3879 438.913 71.715 443.132 76.312C447.293 80.8517 449.449 86.1021 449.54 91.9258H449.529Z" fill="white"/>
<path d="M515.446 56.812H514.724C508.338 56.9381 502.595 58.6233 497.631 61.8217C494.353 63.9425 491.659 66.476 489.572 69.3879V58.5545H475.254V139.627H490.099V98.3914C490.099 88.5095 492.358 81.2185 496.817 76.7018C501.265 72.1965 507.364 69.9152 514.93 69.9152C522.496 69.9152 527.701 71.8526 530.876 75.6586C534.121 79.5448 535.76 86.148 535.76 95.2617V139.627H550.778V95.2617C550.778 82.4452 547.912 72.7353 542.248 66.4072C536.54 60.0334 527.529 56.812 515.457 56.812H515.446Z" fill="white"/>
<path d="M604.451 56.812H603.729C597.344 56.9381 591.6 58.6233 586.648 61.8217C583.369 63.9425 580.675 66.476 578.589 69.3879V58.5545H564.27V139.627H579.105V98.3914C579.105 88.5095 581.363 81.2185 585.822 76.7018C590.27 72.1965 596.369 69.9152 603.935 69.9152C611.501 69.9152 616.706 71.8526 619.882 75.6586C623.126 79.5448 624.765 86.148 624.765 95.2617V139.627H639.783V95.2617C639.783 82.4452 636.917 72.7353 631.254 66.4072C625.545 60.0334 616.534 56.812 604.463 56.812H604.451Z" fill="white"/>
<path d="M707.454 58.5547L682.543 119.428L659.146 59.4603L658.79 58.5547H642.821L675.401 136.99L668.546 153.567C667.606 155.436 667.044 156.525 666.849 156.88C666.849 156.88 666.666 157.167 665.76 157.648C665.302 157.889 664.407 158.175 662.688 158.175H639.772V171.451H662.688C666.047 171.451 668.867 171.141 671.068 170.534C673.441 169.869 675.504 168.447 677.19 166.303C678.76 164.309 679.826 162.761 680.457 161.569C681.053 160.434 682.085 158.221 683.644 154.759L723.572 58.5662H707.454V58.5547Z" fill="white"/>
<path d="M721.887 128.392C721.887 126.306 720.603 125.24 718.058 125.24H714.114V135.27H715.479V131.476H719.193C720.087 131.476 720.19 131.946 720.19 132.301V135.27H721.554V132.301C721.554 131.591 721.234 131.098 720.592 130.845C721.463 130.318 721.898 129.493 721.898 128.392H721.887ZM720.523 128.392C720.523 129.665 719.72 130.284 718.058 130.284H715.479V126.432H718.058C719.72 126.432 720.523 127.074 720.523 128.392Z" fill="white"/>
<path d="M724.26 123.749C722.449 121.915 720.213 120.987 717.611 120.987C715.009 120.987 712.762 121.915 710.928 123.749C709.093 125.584 708.165 127.819 708.165 130.421C708.165 133.024 709.093 135.213 710.928 137.036C712.762 138.87 715.009 139.799 717.611 139.799C720.213 139.799 722.449 138.87 724.26 137.036C726.071 135.202 727 132.978 727 130.421C727 127.865 726.083 125.584 724.26 123.749ZM725.624 130.433C725.624 132.645 724.833 134.571 723.286 136.142C721.738 137.712 719.823 138.503 717.611 138.503C715.398 138.503 713.473 137.701 711.925 136.107C710.377 134.56 709.586 132.645 709.586 130.433C709.586 128.22 710.377 126.283 711.925 124.69C713.473 123.108 715.387 122.294 717.611 122.294C719.835 122.294 721.738 123.085 723.286 124.655C724.833 126.226 725.624 128.163 725.624 130.421V130.433Z" fill="white"/>
<path d="M152.81 80.9664L107.173 93.1984C102.003 94.5855 97.291 97.3024 93.5079 101.085C89.7248 104.869 87.0079 109.58 85.6208 114.75L73.3889 160.388L89.1631 164.618L101.063 120.207L135.729 154.874L147.285 143.318L112.618 108.652L157.029 96.7521L152.799 80.9779L152.81 80.9664Z" fill="#FFBEF5"/>
<path d="M108.652 36.051L96.4198 81.6885C95.0326 86.8587 92.3157 91.5704 88.5326 95.3534C84.7496 99.1365 80.0379 101.853 74.8677 103.241L29.2302 115.472L25 99.6982L69.4109 87.7988L34.7557 53.1206L46.3113 41.5651L80.978 76.2317L92.866 31.8208L108.64 36.051H108.652Z" fill="#FFBEF5"/>
</svg>
