<svg id="Layer_1" data-name="Layer 1" xmlns="http://www.w3.org/2000/svg" viewBox="0 0 24 24"><path d="M20,2.5H4a.47237.47237,0,0,0-.07971.016,2.536,2.536,0,0,0-.33679.01813A2.57992,2.57992,0,0,0,1.5,5.10742,2.39562,2.39562,0,0,0,3.89307,7.5H5.5V19A2.50263,2.50263,0,0,0,8,21.5H20A2.50263,2.50263,0,0,0,22.5,19V5A2.50263,2.50263,0,0,0,20,2.5ZM5.5,6.5H3.89307A1.39464,1.39464,0,0,1,2.5,5.10742,1.574,1.574,0,0,1,3.74463,3.52051,1.50194,1.50194,0,0,1,5.5,5ZM21.5,19A1.50164,1.50164,0,0,1,20,20.5H8A1.50164,1.50164,0,0,1,6.5,19V5a2.49535,2.49535,0,0,0-.50146-1.5H20A1.50164,1.50164,0,0,1,21.5,5Zm-7-2a.49971.49971,0,0,1-.5.5H9a.5.5,0,0,1,0-1h5A.49971.49971,0,0,1,14.5,17Zm5-3a.49971.49971,0,0,1-.5.5H9a.5.5,0,0,1,0-1H19A.49971.49971,0,0,1,19.5,14Zm0-3a.49971.49971,0,0,1-.5.5H9a.5.5,0,0,1,0-1H19A.49971.49971,0,0,1,19.5,11Zm0-4a.49971.49971,0,0,1-.5.5H9a.5.5,0,0,1,0-1H19A.49971.49971,0,0,1,19.5,7Z"/></svg>