<svg id="Layer_1" data-name="Layer 1" xmlns="http://www.w3.org/2000/svg" viewBox="0 0 24 24"><path d="M10.93164,22.02539l.84473.42188a.50058.50058,0,0,0,.44726,0l.84473-.42188A13.374,13.374,0,0,0,20.5,10a8.5,8.5,0,0,0-17,0A13.374,13.374,0,0,0,10.93164,22.02539ZM12,2.5A7.5082,7.5082,0,0,1,19.5,10a12.37824,12.37824,0,0,1-6.87891,11.13086L12,21.44141l-.62109-.31055A12.37824,12.37824,0,0,1,4.5,10,7.5082,7.5082,0,0,1,12,2.5Zm0,11A3.5,3.5,0,1,0,8.5,10,3.50424,3.50424,0,0,0,12,13.5Zm0-6A2.5,2.5,0,1,1,9.5,10,2.50231,2.50231,0,0,1,12,7.5Z"/></svg>