<svg id="Layer_1" data-name="Layer 1" xmlns="http://www.w3.org/2000/svg" viewBox="0 0 24 24"><path d="M15,7.5H9A1.50164,1.50164,0,0,0,7.5,9v6A1.50164,1.50164,0,0,0,9,16.5h6A1.50164,1.50164,0,0,0,16.5,15V9A1.50164,1.50164,0,0,0,15,7.5Zm.5,7.5a.50065.50065,0,0,1-.5.5H9a.50034.50034,0,0,1-.5-.5V9A.50034.50034,0,0,1,9,8.5h6a.50065.50065,0,0,1,.5.5ZM22,8.5a.5.5,0,0,0,0-1H19.5V7A2.50263,2.50263,0,0,0,17,4.5h-.5V2a.5.5,0,0,0-1,0V4.5h-3V2a.5.5,0,0,0-1,0V4.5h-3V2a.5.5,0,0,0-1,0V4.5H7A2.50294,2.50294,0,0,0,4.5,7v.5H2a.5.5,0,0,0,0,1H4.5v3H2a.5.5,0,0,0,0,1H4.5v3H2a.5.5,0,0,0,0,1H4.5V17A2.50294,2.50294,0,0,0,7,19.5h.5V22a.5.5,0,0,0,1,0V19.5h3V22a.5.5,0,0,0,1,0V19.5h3V22a.5.5,0,0,0,1,0V19.5H17A2.50263,2.50263,0,0,0,19.5,17v-.5H22a.5.5,0,0,0,0-1H19.5v-3H22a.5.5,0,0,0,0-1H19.5v-3ZM18.5,17A1.50164,1.50164,0,0,1,17,18.5H7A1.50164,1.50164,0,0,1,5.5,17V7A1.50164,1.50164,0,0,1,7,5.5H17A1.50164,1.50164,0,0,1,18.5,7Z"/></svg>